<?xml version="1.0" encoding="UTF-8" standalone="no"?>
<!-- Created with Inkscape (http://www.inkscape.org/) -->

<svg
   width="432"
   height="432"
   viewBox="72 72 288 288"
   version="1.1"
   id="svg4579"
   sodipodi:docname="ic_launcher_foreground.svg"
   inkscape:version="1.4.2 (f4327f4, 2025-05-13)"
   inkscape:export-filename="C:\Users\uwe\git\wp-display-android\WpDisplayNative\app\src\main\res\mipmap-xhdpi\ic_launcher_foreground.png"
   inkscape:export-xdpi="48"
   inkscape:export-ydpi="48"
   xmlns:inkscape="http://www.inkscape.org/namespaces/inkscape"
   xmlns:sodipodi="http://sodipodi.sourceforge.net/DTD/sodipodi-0.dtd"
   xmlns:xlink="http://www.w3.org/1999/xlink"
   xmlns="http://www.w3.org/2000/svg"
   xmlns:svg="http://www.w3.org/2000/svg"
   xmlns:rdf="http://www.w3.org/1999/02/22-rdf-syntax-ns#"
   xmlns:cc="http://creativecommons.org/ns#"
   xmlns:dc="http://purl.org/dc/elements/1.1/">
  <defs
     id="defs4573">
    <linearGradient
       id="linearGradient4088">
      <stop
         style="stop-color:#000000;stop-opacity:1;"
         offset="0"
         id="stop4090" />
      <stop
         style="stop-color:#000000;stop-opacity:0;"
         offset="1"
         id="stop4092" />
    </linearGradient>
    <filter
       inkscape:collect="always"
       id="filter3783"
       x="-0.025215662"
       y="-0.037019137"
       width="1.0504313"
       height="1.0740383">
      <feGaussianBlur
         inkscape:collect="always"
         stdDeviation="1.1766259"
         id="feGaussianBlur3785" />
    </filter>
    <linearGradient
       gradientTransform="matrix(1.1828356,0,0,1.1828356,96.08071,26.747)"
       inkscape:collect="always"
       xlink:href="#linearGradient4088"
       id="linearGradient3777"
       x1="20"
       y1="84"
       x2="172"
       y2="236"
       gradientUnits="userSpaceOnUse" />
  </defs>
  <sodipodi:namedview
     id="base"
     pagecolor="#ffffff"
     bordercolor="#666666"
     borderopacity="1.0"
     inkscape:pageopacity="0.0"
     inkscape:pageshadow="2"
     inkscape:zoom="2"
     inkscape:cx="216"
     inkscape:cy="215.75"
     inkscape:document-units="px"
     inkscape:current-layer="svg4579"
     showgrid="true"
     units="px"
     scale-x="0.66"
     showguides="true"
     inkscape:guide-bbox="true"
     inkscape:measure-start="120,312"
     inkscape:measure-end="312,312"
     inkscape:window-width="3840"
     inkscape:window-height="2036"
     inkscape:window-x="-12"
     inkscape:window-y="-12"
     inkscape:window-maximized="1"
     viewbox-x="72"
     viewbox-y="72"
     inkscape:snap-bbox="false"
     inkscape:snap-nodes="true"
     inkscape:bbox-nodes="true"
     inkscape:showpageshadow="2"
     inkscape:pagecheckerboard="0"
     inkscape:deskcolor="#d1d1d1">
    <inkscape:grid
       type="xygrid"
       id="grid5124"
       empspacing="4"
       originx="0"
       originy="0"
       spacingy="1"
       spacingx="1"
       units="px" />
    <sodipodi:guide
       position="48.00024,288.00144"
       orientation="1,0"
       id="guide5126"
       inkscape:locked="false" />
    <sodipodi:guide
       position="240.0012,0"
       orientation="1,0"
       id="guide5128"
       inkscape:locked="false" />
    <sodipodi:guide
       position="0,48.00024"
       orientation="0,1"
       id="guide5130"
       inkscape:locked="false" />
    <sodipodi:guide
       position="0,240.0012"
       orientation="0,1"
       id="guide5132"
       inkscape:locked="false" />
    <sodipodi:guide
       position="0,0"
       orientation="-0.70710678,0.70710678"
       id="guide5183"
       inkscape:locked="false" />
    <sodipodi:guide
       position="288.00144,0"
       orientation="0.70710678,0.70710678"
       id="guide5187"
       inkscape:locked="false" />
  </sodipodi:namedview>
  <metadata
     id="metadata4576">
    <rdf:RDF>
      <cc:Work
         rdf:about="">
        <dc:format>image/svg+xml</dc:format>
        <dc:type
           rdf:resource="http://purl.org/dc/dcmitype/StillImage" />
      </cc:Work>
    </rdf:RDF>
  </metadata>
  <g
     id="layer3"
     inkscape:label="Safe zone"
     style="display:inline">
    <path
       style="display:inline;opacity:0.2;fill:#ff00ff;fill-opacity:1;fill-rule:nonzero;stroke:none;stroke-width:1.56348"
       id="path4513"
       sodipodi:type="arc"
       sodipodi:cx="216.00073"
       sodipodi:cy="216.00072"
       sodipodi:rx="88.00045"
       sodipodi:ry="88.000443"
       sodipodi:start="0"
       sodipodi:end="6.2785078"
       sodipodi:open="true"
       d="m 304.00118,216.00072 a 88.00045,88.000443 0 0 1 -87.89754,88.00038 88.00045,88.000443 0 0 1 -88.10312,-87.79457 88.00045,88.000443 0 0 1 87.6915,-88.20571 88.00045,88.000443 0 0 1 88.3082,87.58828"
       sodipodi:arc-type="arc" />
  </g>
  <g
     inkscape:label="Icon and Shadow"
     id="layer1"
     style="display:inline">
    <path
       style="display:inline;opacity:0.2;fill:url(#linearGradient3777);fill-opacity:1;stroke:none;stroke-width:1.18284"
       d="M 346.95,277.59 285.34,216 l -29.57,-4.73 -33.12,-33.12 -31.94,-4.73 -33.12,28.39 9.46,47.31 94.59,94.8 37.88,-38.02 z"
       id="path3783"
       inkscape:connector-curvature="0"
       sodipodi:nodetypes="cccccccccc"
       inkscape:label="pathLightShadow" />
    <path
       sodipodi:nodetypes="ccsccscccccccsccccccccccc"
       d="M 47.26,7.65 C 27.14,8.67 11.2,25.43 11.2,45.78 c 0,21 17.1,38.13 38.13,38.13 17.12,0 31.5,-11.43 36.29,-26.99 H 78.04 C 73.56,68.35 62.38,76.44 49.33,76.44 32.32,76.44 18.44,62.77 18.44,45.78 18.44,29.32 31.46,15.83 47.72,15 c 0.48,-0.05 1.03,0 1.61,0 0.58,0 1.02,-0.05 1.49,0 12.36,0.63 22.91,8.64 27.22,19.64 h 7.69 C 81.14,19.65 67.56,8.48 51.28,7.65 c -0.7,-0.05 -1.34,0 -1.95,0 -0.61,0 -1.37,-0.05 -2.07,0 z m 53.06,15.16 -4.59,5.97 13.46,12.99 h -62 v 8 h 62 l -13.46,13.12 4.59,5.86 22.87,-22.98 z"
       id="path3781"
       style="color:#000000;font-style:normal;font-variant:normal;font-weight:normal;font-stretch:normal;font-size:medium;line-height:normal;font-family:Sans;-inkscape-font-specification:Sans;text-indent:0;text-align:start;text-decoration:none;text-decoration-line:none;letter-spacing:normal;word-spacing:normal;text-transform:none;writing-mode:lr-tb;direction:ltr;baseline-shift:baseline;text-anchor:start;display:inline;overflow:visible;visibility:visible;fill:#000000;fill-opacity:0.211765;fill-rule:nonzero;stroke:none;stroke-width:1;marker:none;filter:url(#filter3783);enable-background:new"
       inkscape:connector-curvature="0"
       transform="matrix(1.1828357,0,0,1.1828357,139.62911,166.5992)"
       inkscape:label="pathDropShadow" />
    <path
       inkscape:connector-curvature="0"
       style="color:#000000;font-style:normal;font-variant:normal;font-weight:normal;font-stretch:normal;font-size:medium;line-height:normal;font-family:Sans;-inkscape-font-specification:Sans;text-indent:0;text-align:start;text-decoration:none;text-decoration-line:none;letter-spacing:normal;word-spacing:normal;text-transform:none;writing-mode:lr-tb;direction:ltr;baseline-shift:baseline;text-anchor:start;display:inline;overflow:visible;visibility:visible;fill:#ffffff;fill-opacity:1;fill-rule:nonzero;stroke:none;stroke-width:1.18284;marker:none;enable-background:new"
       id="path10838"
       d="m 195.53,170.92 c -23.8,1.21 -42.65,21.04 -42.65,45.1 0,24.84 20.23,45.1 45.1,45.1 20.25,0 37.26,-13.53 42.92,-31.92 h -8.97 c -5.3,13.52 -18.52,23.09 -33.96,23.09 -20.12,0 -36.54,-16.17 -36.54,-36.27 0,-19.47 15.39,-35.42 34.64,-36.4 0.57,-0.06 1.22,0 1.9,0 0.69,0 1.2,-0.06 1.77,0 14.62,0.74 27.1,10.22 32.19,23.23 h 9.1 c -5.43,-17.72 -21.5,-30.94 -40.75,-31.92 -0.82,-0.06 -1.59,0 -2.31,0 -0.72,0 -1.62,-0.06 -2.44,0 z m 62.76,17.93 -5.43,7.06 15.92,15.36 h -73.34 v 9.46 h 73.34 l -15.92,15.52 5.43,6.93 27.05,-27.18 z"
       sodipodi:nodetypes="ccsccscccccccsccccccccccc"
       inkscape:label="pathIcon" />
  </g>
</svg>
