<?xml version="1.0" encoding="UTF-8" standalone="no"?>
<!-- Created with Inkscape (http://www.inkscape.org/) -->

<svg
   width="432"
   height="432"
   viewBox="0 0 432 432"
   version="1.1"
   id="svg4579"
   sodipodi:docname="ic_launcher_foreground.svg"
   inkscape:version="1.4.2 (f4327f4, 2025-05-13)"
   inkscape:export-filename="C:\Users\uwe\git\wp-display-android\WpDisplayNative\app\src\main\res\mipmap-xhdpi\ic_launcher_foreground.png"
   inkscape:export-xdpi="48"
   inkscape:export-ydpi="48"
   xmlns:inkscape="http://www.inkscape.org/namespaces/inkscape"
   xmlns:sodipodi="http://sodipodi.sourceforge.net/DTD/sodipodi-0.dtd"
   xmlns:xlink="http://www.w3.org/1999/xlink"
   xmlns="http://www.w3.org/2000/svg"
   xmlns:svg="http://www.w3.org/2000/svg"
   xmlns:rdf="http://www.w3.org/1999/02/22-rdf-syntax-ns#"
   xmlns:cc="http://creativecommons.org/ns#"
   xmlns:dc="http://purl.org/dc/elements/1.1/">
  <defs
     id="defs4573">
    <linearGradient
       id="linearGradient4088">
      <stop
         style="stop-color:#000000;stop-opacity:1;"
         offset="0"
         id="stop4090" />
      <stop
         style="stop-color:#000000;stop-opacity:0;"
         offset="1"
         id="stop4092" />
    </linearGradient>
    <filter
       inkscape:collect="always"
       id="filter3783"
       x="-0.025215662"
       y="-0.037019137"
       width="1.0504313"
       height="1.0740383">
      <feGaussianBlur
         inkscape:collect="always"
         stdDeviation="1.1766259"
         id="feGaussianBlur3785" />
    </filter>
    <linearGradient
       gradientTransform="matrix(1.7742534,0,0,1.7742534,31.268565,-69.497)"
       inkscape:collect="always"
       xlink:href="#linearGradient4088"
       id="linearGradient3777"
       x1="20"
       y1="84"
       x2="172"
       y2="236"
       gradientUnits="userSpaceOnUse" />
  </defs>
  <sodipodi:namedview
     id="base"
     pagecolor="#ffffff"
     bordercolor="#666666"
     borderopacity="1.0"
     inkscape:pageopacity="0.0"
     inkscape:pageshadow="2"
     inkscape:zoom="2.8284271"
     inkscape:cx="210.01071"
     inkscape:cy="191.44916"
     inkscape:document-units="px"
     inkscape:current-layer="layer1"
     showgrid="true"
     units="px"
     scale-x="0.66"
     showguides="true"
     inkscape:guide-bbox="true"
     inkscape:measure-start="120,312"
     inkscape:measure-end="312,312"
     inkscape:window-width="3840"
     inkscape:window-height="2036"
     inkscape:window-x="-12"
     inkscape:window-y="-12"
     inkscape:window-maximized="1"
     viewbox-x="72"
     viewbox-y="72"
     inkscape:snap-bbox="false"
     inkscape:snap-nodes="true"
     inkscape:bbox-nodes="true"
     inkscape:showpageshadow="2"
     inkscape:pagecheckerboard="0"
     inkscape:deskcolor="#d1d1d1">
    <inkscape:grid
       type="xygrid"
       id="grid5124"
       empspacing="4"
       originx="0"
       originy="0"
       spacingy="1"
       spacingx="1"
       units="px" />
    <sodipodi:guide
       position="48,288"
       orientation="-1,0"
       id="guide5126"
       inkscape:locked="false"
       inkscape:label="left margin"
       inkscape:color="rgb(0,134,229)" />
    <sodipodi:guide
       position="240,288"
       orientation="-1,0"
       id="guide5128"
       inkscape:locked="false"
       inkscape:label="right margin"
       inkscape:color="rgb(0,134,229)" />
    <sodipodi:guide
       position="0,48"
       orientation="0,1"
       id="guide5130"
       inkscape:locked="false"
       inkscape:label="bottom margin"
       inkscape:color="rgb(0,134,229)" />
    <sodipodi:guide
       position="0,240"
       orientation="0,1"
       id="guide5132"
       inkscape:locked="false"
       inkscape:label="top margin"
       inkscape:color="rgb(0,134,229)" />
    <sodipodi:guide
       position="0,0"
       orientation="-0.70710678,0.70710678"
       id="guide5183"
       inkscape:locked="false"
       inkscape:label="bottom diagonal"
       inkscape:color="rgb(0,134,229)" />
    <sodipodi:guide
       position="0,288"
       orientation="0.70710678,0.70710678"
       id="guide5187"
       inkscape:locked="false"
       inkscape:label="top diagonal"
       inkscape:color="rgb(0,134,229)" />
  </sodipodi:namedview>
  <metadata
     id="metadata4576">
    <rdf:RDF>
      <cc:Work
         rdf:about="">
        <dc:format>image/svg+xml</dc:format>
        <dc:type
           rdf:resource="http://purl.org/dc/dcmitype/StillImage" />
      </cc:Work>
    </rdf:RDF>
  </metadata>
  <g
     id="layer3"
     inkscape:label="Safe zone"
     style="display:inline">
    <path
       style="display:inline;opacity:0.2;fill:#ff00ff;fill-opacity:1;fill-rule:nonzero;stroke:none;stroke-width:2.3452"
       id="path4513"
       sodipodi:type="arc"
       sodipodi:cx="216"
       sodipodi:cy="216"
       sodipodi:rx="132"
       sodipodi:ry="132"
       sodipodi:start="0"
       sodipodi:end="6.2785078"
       sodipodi:open="true"
       d="M 348,216 A 132,132 0 0 1 216.15436,347.99991 132,132 0 0 1 84.000361,216.30872 132,132 0 0 1 215.53693,84.000812 132,132 0 0 1 347.99856,215.38257"
       sodipodi:arc-type="arc" />
  </g>
  <g
     inkscape:label="Icon and Shadow"
     id="layer1"
     style="display:inline">
    <path
       style="display:inline;opacity:0.2;fill:url(#linearGradient3777);fill-opacity:1;stroke:none;stroke-width:1.77426"
       d="m 407.5725,306.7675 -92.415,-92.385 -44.355,-7.095 -49.68,-49.68 -47.91,-7.095 -49.68,42.585 14.19,70.965 141.885,142.2 56.82,-57.03 z"
       id="path3783"
       inkscape:connector-curvature="0"
       sodipodi:nodetypes="cccccccccc"
       inkscape:label="pathLightShadow" />
    <path
       sodipodi:nodetypes="ccsccscccccccsccccccccccc"
       d="M 47.26,7.65 C 27.14,8.67 11.2,25.43 11.2,45.78 c 0,21 17.1,38.13 38.13,38.13 17.12,0 31.5,-11.43 36.29,-26.99 H 78.04 C 73.56,68.35 62.38,76.44 49.33,76.44 32.32,76.44 18.44,62.77 18.44,45.78 18.44,29.32 31.46,15.83 47.72,15 c 0.48,-0.05 1.03,0 1.61,0 0.58,0 1.02,-0.05 1.49,0 12.36,0.63 22.91,8.64 27.22,19.64 h 7.69 C 81.14,19.65 67.56,8.48 51.28,7.65 c -0.7,-0.05 -1.34,0 -1.95,0 -0.61,0 -1.37,-0.05 -2.07,0 z m 53.06,15.16 -4.59,5.97 13.46,12.99 h -62 v 8 h 62 l -13.46,13.12 4.59,5.86 22.87,-22.98 z"
       id="path3781"
       style="color:#000000;font-style:normal;font-variant:normal;font-weight:normal;font-stretch:normal;font-size:medium;line-height:normal;font-family:Sans;-inkscape-font-specification:Sans;text-indent:0;text-align:start;text-decoration:none;text-decoration-line:none;letter-spacing:normal;word-spacing:normal;text-transform:none;writing-mode:lr-tb;direction:ltr;baseline-shift:baseline;text-anchor:start;display:inline;overflow:visible;visibility:visible;fill:#000000;fill-opacity:0.211765;fill-rule:nonzero;stroke:none;stroke-width:1;marker:none;filter:url(#filter3783);enable-background:new"
       inkscape:connector-curvature="0"
       transform="matrix(1.7742536,0,0,1.7742536,99.88879,139.53066)"
       inkscape:label="pathDropShadow" />
    <path
       inkscape:connector-curvature="0"
       style="color:#000000;font-style:normal;font-variant:normal;font-weight:normal;font-stretch:normal;font-size:medium;line-height:normal;font-family:Sans;-inkscape-font-specification:Sans;text-indent:0;text-align:start;text-decoration:none;text-decoration-line:none;letter-spacing:normal;word-spacing:normal;text-transform:none;writing-mode:lr-tb;direction:ltr;baseline-shift:baseline;text-anchor:start;display:inline;overflow:visible;visibility:visible;fill:#ffffff;fill-opacity:1;fill-rule:nonzero;stroke:none;stroke-width:1.77426;marker:none;enable-background:new"
       id="path10838"
       d="m 183.74,148.37 c -35.7,1.81 -63.98,31.56 -63.98,67.65 0,37.26 30.34,67.65 67.65,67.65 30.38,0 55.89,-20.3 64.38,-47.88 H 238.34 c -7.95,20.28 -27.78,34.63 -50.94,34.63 -30.18,0 -54.81,-24.25 -54.81,-54.41 0,-29.2 23.09,-53.13 51.96,-54.6 0.85,-0.09 1.83,0 2.85,0 1.03,0 1.8,-0.09 2.65,0 21.93,1.11 40.65,15.33 48.28,34.84 h 13.65 c -8.14,-26.58 -32.25,-46.41 -61.12,-47.88 -1.23,-0.09 -2.38,0 -3.46,0 -1.08,0 -2.43,-0.09 -3.66,0 z m 94.14,26.89 -8.14,10.59 23.88,23.04 h -110.01 v 14.19 h 110.01 l -23.88,23.28 8.14,10.39 40.58,-40.77 z"
       sodipodi:nodetypes="ccsccscccccccsccccccccccc"
       inkscape:label="pathIcon" />
  </g>
</svg>
